<?xml version="1.0" encoding="utf-8" ?>
<svg baseProfile="tiny" height="100%" version="1.2" width="100%" xmlns="http://www.w3.org/2000/svg" xmlns:ev="http://www.w3.org/2001/xml-events" xmlns:xlink="http://www.w3.org/1999/xlink"><defs /><path d="M 48,127 48,129 Z" fill="black" stroke="none" /><path d="M 77,112 78,112 Z" fill="black" stroke="none" /><path d="M 166,84 163,87 163,88 162,89 162,90 163,91 163,92 166,95 169,92 169,91 170,90 170,87 168,87 167,86 168,85 168,84 Z" fill="black" stroke="none" /><path d="M 31,79 31,80 Z" fill="black" stroke="none" /><path d="M 116,78 116,84 115,85 114,84 114,79 112,79 110,81 110,82 111,82 112,83 111,84 111,85 110,86 109,85 109,84 108,83 108,82 108,83 107,84 107,85 108,86 107,87 105,87 105,89 104,90 104,92 105,93 105,100 107,100 108,101 107,102 105,102 105,103 106,104 106,105 107,106 107,107 108,108 108,109 109,109 110,108 111,109 111,110 110,111 110,112 111,112 112,113 112,115 113,115 114,114 115,115 115,116 114,117 114,119 115,120 115,121 116,122 116,123 117,124 117,129 118,130 117,131 117,137 116,138 116,145 115,146 114,145 114,143 112,145 112,146 113,146 114,147 113,148 109,148 105,152 104,152 103,153 104,153 105,154 105,161 107,161 108,162 107,163 102,163 101,162 102,161 103,161 103,155 102,156 101,155 100,155 99,156 99,157 98,158 97,158 96,159 95,159 94,160 95,161 94,162 92,162 92,163 91,164 91,165 90,166 90,167 89,168 89,176 90,176 91,177 90,178 87,178 87,183 88,183 89,184 89,188 90,189 90,190 93,193 94,193 96,195 98,195 99,196 100,196 101,197 103,197 104,198 112,198 113,197 115,197 116,196 117,196 119,194 120,194 120,193 119,192 120,191 120,186 119,186 118,185 120,183 121,183 122,184 122,191 124,189 124,188 125,187 125,186 126,185 126,184 127,183 127,182 128,181 128,178 127,178 126,177 127,176 129,176 130,175 130,174 131,173 130,173 129,172 130,171 130,170 131,169 132,170 133,169 133,168 134,167 134,166 136,164 136,163 135,163 134,162 135,161 136,161 136,155 135,154 136,153 137,153 138,154 138,160 141,157 141,156 147,150 147,149 152,144 152,143 153,142 153,140 152,140 151,139 152,138 154,138 155,139 157,137 157,135 159,133 159,131 158,130 158,125 159,124 160,125 160,127 161,127 161,125 162,124 161,124 160,123 161,122 162,122 162,117 160,117 159,116 160,115 162,115 162,113 161,112 162,111 162,109 161,109 160,108 161,107 161,105 160,104 160,103 159,102 159,101 156,98 156,97 155,96 155,100 156,100 157,101 156,102 151,102 150,101 151,100 153,100 153,94 152,94 151,93 151,92 150,91 149,91 146,88 145,88 143,86 142,86 141,85 140,85 139,84 138,84 138,85 140,85 141,86 140,87 135,87 134,86 135,85 136,85 136,83 135,82 130,82 129,81 129,80 127,80 127,82 128,83 126,85 125,84 125,79 122,79 122,85 123,85 124,86 123,87 118,87 117,86 118,85 120,85 120,79 119,79 118,80 117,79 117,78 Z" fill="black" stroke="none" /><path d="M 161,73 157,77 157,79 156,80 156,82 157,83 157,84 158,85 159,85 160,84 161,85 162,85 164,83 164,82 163,82 162,81 163,80 163,79 162,78 163,77 164,77 165,78 165,80 166,80 166,75 164,73 Z" fill="black" stroke="none" /><path d="M 152,62 150,64 149,64 149,69 147,71 147,75 148,76 148,77 149,78 151,78 152,77 155,77 155,76 157,74 157,72 158,71 158,65 157,64 157,63 156,63 155,62 155,70 154,71 153,70 153,64 152,64 151,63 Z" fill="black" stroke="none" /><path d="M 136,52 133,55 133,56 132,57 132,59 131,60 131,62 132,63 132,65 133,66 132,67 132,69 133,70 136,70 137,71 136,72 135,72 139,72 138,72 136,70 136,64 135,64 134,63 135,62 136,62 137,61 138,62 138,69 139,70 141,70 142,69 141,68 141,65 142,64 143,65 143,66 144,66 144,65 145,64 145,63 144,63 143,62 144,61 145,61 145,57 141,53 141,52 138,52 138,54 140,54 141,55 140,56 135,56 134,55 135,54 136,54 Z" fill="black" stroke="none" /><path d="M 116,40 111,45 111,46 114,46 115,47 115,48 114,49 113,48 111,48 111,49 110,50 110,51 111,51 112,52 111,53 111,54 110,55 109,54 109,61 111,63 111,65 114,68 114,66 113,65 115,63 116,64 116,68 120,68 120,64 119,64 118,63 120,61 121,61 122,62 122,67 124,65 124,64 126,62 126,60 127,59 127,56 126,55 127,54 128,54 128,53 127,53 127,54 126,55 125,54 125,49 126,48 127,49 127,51 128,51 128,50 126,48 127,47 127,46 126,45 126,44 123,41 118,41 117,40 Z" fill="black" stroke="none" /><path d="M 73,36 72,37 72,39 74,39 75,40 74,41 69,41 68,40 69,39 70,39 70,37 66,37 66,39 65,40 64,39 64,37 63,38 61,38 60,39 57,39 58,40 57,41 51,41 50,42 49,42 48,43 47,43 46,44 45,44 42,47 41,47 39,49 39,54 41,54 42,55 41,56 36,56 35,55 36,54 37,54 37,51 36,52 36,53 34,55 34,56 33,57 33,58 32,59 32,62 33,63 33,65 32,66 31,65 31,64 31,67 30,68 30,70 31,71 30,72 30,76 31,77 32,77 33,78 33,81 32,82 33,83 33,88 34,89 34,91 35,92 35,93 36,93 37,94 36,95 37,96 37,98 37,94 36,93 37,92 38,92 39,93 39,100 41,100 42,101 41,102 39,102 40,103 40,104 41,105 41,106 42,107 42,109 44,111 44,112 45,112 46,113 45,114 45,115 47,115 48,114 49,115 49,116 48,117 46,117 46,121 48,123 47,124 47,125 48,125 49,124 50,125 50,130 48,132 48,137 49,138 49,139 50,140 50,145 51,146 51,147 53,149 53,150 55,152 56,152 58,154 60,154 62,156 64,156 64,155 63,154 64,153 65,153 66,154 66,156 70,156 70,155 69,154 70,153 71,153 72,154 72,156 73,156 74,155 76,155 78,153 81,153 86,148 85,148 84,147 85,146 86,146 87,145 87,140 86,140 85,139 86,138 88,138 89,137 89,133 87,131 87,125 86,125 85,124 86,123 85,122 85,121 83,119 83,118 82,117 78,117 77,116 78,115 80,115 79,114 78,114 78,115 77,116 75,114 75,111 76,110 75,109 75,108 74,107 74,106 72,104 72,102 69,102 68,101 69,100 70,100 70,94 69,93 70,92 70,90 71,89 71,88 72,87 69,87 68,86 69,85 70,85 70,79 69,79 68,78 69,77 71,77 72,78 72,84 73,84 73,83 74,82 74,81 76,79 76,78 77,77 78,77 87,68 87,64 86,64 85,63 87,61 88,61 89,62 89,66 91,64 91,63 92,62 92,61 93,60 93,59 94,58 94,56 93,55 94,54 94,53 94,54 93,55 92,54 92,49 93,48 94,49 94,51 94,49 93,48 94,47 94,46 93,45 93,44 92,43 92,42 91,41 85,41 84,40 85,39 87,39 87,38 86,38 85,37 83,37 83,38 82,39 81,38 81,37 79,37 78,38 78,39 77,40 75,38 75,36 Z" fill="black" stroke="none" /><path d="M 34,30 33,31 33,35 32,36 33,37 33,40 34,40 35,41 35,40 36,39 37,39 37,33 36,32 37,31 36,30 Z" fill="black" stroke="none" /><path d="M 48,21 Z" fill="black" stroke="none" /><path d="M 41,20 39,22 39,24 41,24 42,25 41,26 38,26 38,28 39,29 39,30 40,31 40,32 41,33 43,33 45,31 47,31 47,26 45,26 44,25 45,24 46,24 46,23 45,23 45,24 44,25 43,24 43,23 42,22 42,20 Z" fill="black" stroke="none" /><path d="M 52,12 49,15 49,17 50,18 50,23 49,24 49,26 51,28 52,28 53,29 54,29 55,28 56,28 58,26 58,25 59,24 59,17 58,16 58,15 55,12 Z" fill="black" stroke="none" /><path d="M 69,6 68,7 67,7 66,8 66,9 64,11 64,12 63,13 63,19 64,19 64,18 63,17 64,16 65,16 66,17 66,20 65,21 64,21 64,23 65,22 66,23 66,25 67,26 72,26 69,26 68,25 69,24 70,24 70,18 69,17 70,16 71,16 72,17 72,24 74,24 75,23 75,19 76,18 76,17 77,16 77,14 76,13 76,11 75,10 75,9 73,7 72,7 72,8 73,9 74,9 75,10 74,11 69,11 68,10 69,9 70,9 70,6 Z" fill="black" stroke="none" /><path d="M 89,0 89,9 90,9 91,10 90,11 85,11 84,10 85,9 87,9 87,3 86,3 84,5 84,6 83,7 83,8 82,9 82,12 81,13 81,16 83,18 83,24 84,25 84,26 85,27 86,27 87,28 93,28 95,26 94,25 95,24 97,24 97,23 98,22 98,21 97,21 96,20 97,19 97,18 96,17 97,16 98,16 99,17 99,18 100,18 100,13 101,12 100,11 100,7 99,7 98,6 98,5 97,4 97,2 95,2 94,1 95,0 Z" fill="black" stroke="none" /></svg>